<?xml version="1.0" standalone="no"?><svg xmlns="http://www.w3.org/2000/svg" viewBox="0 0 1440 320"><path fill="#b56425" fill-opacity="1" d="M0,32L24,42.7C48,53,96,75,144,90.7C192,107,240,117,288,144C336,171,384,213,432,202.7C480,192,528,128,576,101.3C624,75,672,85,720,101.3C768,117,816,139,864,160C912,181,960,203,1008,197.3C1056,192,1104,160,1152,133.3C1200,107,1248,85,1296,74.7C1344,64,1392,64,1416,64L1440,64L1440,320L1416,320C1392,320,1344,320,1296,320C1248,320,1200,320,1152,320C1104,320,1056,320,1008,320C960,320,912,320,864,320C816,320,768,320,720,320C672,320,624,320,576,320C528,320,480,320,432,320C384,320,336,320,288,320C240,320,192,320,144,320C96,320,48,320,24,320L0,320Z"></path></svg>